<?xml version="1.0" encoding="UTF-8"?>
<svg width="1000px" height="1000px" viewBox="0 0 1000 1000" version="1.1" xmlns="http://www.w3.org/2000/svg" xmlns:xlink="http://www.w3.org/1999/xlink">
    <!-- Generator: Sketch 55.2 (78181) - https://sketchapp.com -->
    <title>touristapp</title>
    <desc>Created with Sketch.</desc>
    <g id="Page-1" stroke="none" stroke-width="1" fill="none" fill-rule="evenodd">
        <g id="touristapp">
            <rect id="bg" fill="#80DFEF" x="0" y="0" width="1000" height="1000"></rect>
            <g id="logo" transform="translate(337.000000, 500.000000)">
                <path d="M86.859375,25.5833333 C81.218625,25.5833333 76.640625,20.9885667 76.640625,15.35 C76.640625,9.71143333 81.218625,5.11666667 86.859375,5.11666667 L152.504625,15.2886 L173.71875,15.35 L240.91725,5.05526667 C245.781375,5.11666667 250.359375,9.71143333 250.359375,15.35 C250.359375,20.9885667 245.781375,25.5833333 240.140625,25.5833333 L86.859375,25.5833333 Z M136.829062,199.55 L118.588594,108.197033 L5.109375,127.1287 L5.109375,199.55 L136.829062,199.55 Z M321.890625,199.55 L321.890625,127.1287 L208.421625,108.1868 L190.170938,199.55 L321.890625,199.55 Z M157.266562,301.883333 L149.408344,262.5157 L98.4372187,279.533733 L105.86625,301.883333 L157.266562,301.883333 Z M221.13375,301.883333 L228.573,279.533733 L177.601875,262.5157 L169.733437,301.883333 L221.13375,301.883333 Z" id="Shape" fill="#365AE1" fill-rule="nonzero"></path>
                <path d="M157.470938,301.883333 L117.413438,101.330467 L117.515625,61.4 C117.515625,41.6496667 133.559063,25.5833333 153.28125,25.5833333 L173.71875,25.5833333 C193.440938,25.5833333 209.484375,41.6496667 209.484375,61.4 L209.484375,102.333333 L169.529063,301.883333 L157.470938,301.883333 Z" id="Path" fill="#F79F24"></path>
                <path d="M327,204.666667 L327,122.8 L214.26675,103.9809 L214.59375,102.333333 L214.59375,61.4 C214.59375,49.0995333 209.065406,38.2010333 200.491875,30.7 L240.140625,30.7 C248.60175,30.7 255.46875,23.8232 255.46875,15.35 C255.46875,6.8768 248.60175,0 240.140625,0 L173.71875,10.2333333 C173.71875,4.58453333 169.14075,0 163.5,0 C157.85925,0 153.28125,4.58453333 153.28125,10.2333333 L86.859375,0 C78.39825,0 71.53125,6.8768 71.53125,15.35 C71.53125,23.8232 78.39825,30.7 86.859375,30.7 L126.508125,30.7 C117.934594,38.2010333 112.40625,49.0995333 112.40625,61.4 L112.40625,102.333333 L112.73325,103.9809 L0,122.8 L0,204.666667 L132.84375,204.666667 L143.696062,259.026133 L91.96875,276.3 L102.1875,307 L224.8125,307 L235.03125,276.3 L183.293719,259.026133 L194.15625,204.666667 L327,204.666667 Z M316.78125,194.433333 L196.404375,194.433333 L212.458031,114.060733 L316.78125,131.467633 L316.78125,194.433333 Z M10.21875,194.433333 L10.21875,131.467633 L114.541969,114.0505 L130.595625,194.433333 L10.21875,194.433333 Z M109.555219,296.766667 L104.895469,282.767467 L145.535438,269.198067 L151.033125,296.766667 L109.555219,296.766667 Z M217.444781,296.766667 L175.966875,296.766667 L181.474781,269.2083 L222.11475,282.7777 L217.444781,296.766667 Z M240.712875,10.2640333 C243.257344,10.5505667 245.25,12.7200333 245.25,15.35 C245.25,18.1744 242.961,20.4666667 240.140625,20.4666667 L183.9375,20.4666667 L183.9375,19.0135333 L240.712875,10.2640333 Z M81.75,15.35 C81.75,12.7200333 83.7426563,10.5505667 86.287125,10.2640333 L143.0625,19.0135333 L143.0625,20.4666667 L86.859375,20.4666667 C84.039,20.4666667 81.75,18.1744 81.75,15.35 Z M161.660625,296.766667 L122.625,101.320233 L122.625,61.4 C122.625,44.4740667 136.379437,30.7 153.28125,30.7 L173.71875,30.7 C190.620563,30.7 204.375,44.4740667 204.375,61.4 L204.375,101.320233 L165.339375,296.766667 L161.660625,296.766667 Z" id="Shape" fill="#231F20" fill-rule="nonzero"></path>
            </g>
            <text font-family="FuturaPT-Bold, Futura PT" font-size="150" font-weight="bold" fill="#000000">
                <tspan x="138.475" y="352">touristapp</tspan>
            </text>
        </g>
    </g>
</svg>